<?xml version="1.0" encoding="iso-8859-1"?>
<!-- Generator: Adobe Illustrator 16.0.0, SVG Export Plug-In . SVG Version: 6.00 Build 0)  -->
<!DOCTYPE svg PUBLIC "-//W3C//DTD SVG 1.1//EN" "http://www.w3.org/Graphics/SVG/1.1/DTD/svg11.dtd">
<svg version="1.1" id="Capa_1" xmlns="http://www.w3.org/2000/svg" xmlns:xlink="http://www.w3.org/1999/xlink" x="0px" y="0px"
	 width="391.285px" height="391.285px" viewBox="0 0 391.285 391.285" style="enable-background:new 0 0 391.285 391.285;"
	 xml:space="preserve">
<g>
	<g>
		<path d="M263.73,307.765c0-5.521,4.479-10,10-10h82.16c39.17-80.935,45.631-143.653,20.365-187.437
			C340.73,48.766,234.967,51.734,234.967,51.734c-95.389,0-155.629,66.681-155.629,66.681
			C48.596,151.021,17.42,212.788,3.693,254.349c0,0-2.344,7.198-2.898,9.635C0.376,265.824,0,267.673,0,269.569v50.006
			c0,5.347,2.082,10.372,5.865,14.149c3.775,3.771,8.795,5.85,14.135,5.85h0.021l302.215-0.046
			c7.266-0.009,13.963-4.262,17.479-10.618c2.074-3.75,4.078-7.462,6.027-11.145H273.73
			C268.209,317.765,263.73,313.29,263.73,307.765z M196.78,191.544c-12.779,7.604-42.428,15.399-68.588,22.279
			c-12.086,3.179-23.502,6.181-33.443,9.155c-16.244,4.864-33.916,9.454-52.648,13.678c18.221-44.276,44.697-85.143,69.117-106.392
			c0,0,100.499,0,109.527,0s14.955,3.781,15,11.143C235.745,159.292,222.635,176.162,196.78,191.544z"/>
		<path d="M211.745,138.766c-5.515,0-10,4.486-10,10c0,5.515,4.485,10,10,10c5.517,0,10-4.485,10-10
			C221.745,143.251,217.26,138.766,211.745,138.766z"/>
	</g>
</g>
<g>
</g>
<g>
</g>
<g>
</g>
<g>
</g>
<g>
</g>
<g>
</g>
<g>
</g>
<g>
</g>
<g>
</g>
<g>
</g>
<g>
</g>
<g>
</g>
<g>
</g>
<g>
</g>
<g>
</g>
</svg>
