<?xml version="1.0" encoding="utf-8"?>
<!-- Svg Vector Icons : http://www.onlinewebfonts.com/icon -->
<!DOCTYPE svg PUBLIC "-//W3C//DTD SVG 1.1//EN" "http://www.w3.org/Graphics/SVG/1.1/DTD/svg11.dtd">
<svg version="1.1" xmlns="http://www.w3.org/2000/svg" xmlns:xlink="http://www.w3.org/1999/xlink" x="0px" y="0px" viewBox="0 0 1000 1000" enable-background="new 0 0 1000 1000" xml:space="preserve">
<metadata> Svg Vector Icons : http://www.onlinewebfonts.com/icon </metadata>
<g><path d="M693.2,535.6c-0.3,0.6-0.3,1.1-0.2,1.6c0.2,0.8,1.2,1.6,2.3,2c0.4,0.1,0.6,0.4,0.1,1.3c-3,6.5-5.8,10.3-9.7,16c-3.5,5.2-7.5,9.3-12.3,13.3c-7.2,6-17.3,12.5-25.6,8.1c-3.7-1.9-5.3-7.1-5.2-11.3c0.2-11.8,5.4-23.8,15-35.7c11.8-14.5,24.8-22,33.3-17.9C699.9,517.3,697.1,527.5,693.2,535.6z M53.8,499.9c0-86.7,199.7-157,446.1-157c246.4,0,446.1,70.3,446.1,157c0,86.7-199.7,157-446.1,157C253.6,657,53.8,586.7,53.8,499.9z M214.3,554.4c2.7,28.6,26.3,45.2,53,45c21.3-0.2,41.4-6.6,65.5-31.1c22.5-22.9,43-57,62.2-88.6c0.6-1,1-1.5,3.9-1.9c12-1.5,29.8-3.2,41.2-3.9c2.5-0.1,3.1-0.1,4.1,1.1c3,3.8,7.4,6.9,11,8.9c1.7,1,2.6,1.4,3.9,1.5c1.7,0,3-0.9,3.8-1.8c1.2-1.3,1.6-3.1,0.9-4.2c-0.7-1.2-8.6-5.6-8.9-7.4c-0.2-1.1,1-1.4,1-1.4c5.8-1.8,11.9-5.6,15.6-12.6c3.6-7,4.2-16.2-2.4-21.4c-5.8-4.5-14.6-3.8-21.6,2.5c-6.8,6.1-9.1,15-8.2,22.8c0.2,1.4,0.1,1.8-1.8,2c-10.5,0.8-20.7,1.1-32,1.7c-0.8,0.1-1-0.4-0.6-1c13-22.6,32.4-38.6,53.9-54.5c1.4-1.1,1-3.1,0.9-4.8c38.7,8.4,76.2,24.1,116.4,23.8c16.6-0.1,32.5-2.7,47.7-11c13.4-7.3,18.8-14,19.2-21.1c0.3-4.9-3.1-7.9-7.9-6.9c-40.6,9.3-79.3,9.2-119.8,4.3c-52.7-6.4-103-20.5-156.1-16.2c-44.1,3.7-86.1,28.5-86.2,66.3c-0.1,19.1,13.5,34.6,34.6,33.9c24.7-0.8,45-20.6,55.7-45.6c4-9.5-3.4-13.4-7-8c-6.4,9.8-15.3,17.5-25,22.2c-11.6,5.7-24.1,4.2-27.8-5.3c-5.3-13.3,5.7-33.3,30.9-42.7c36.3-13.5,74.4-4.5,110.9,2.3c0.5,0,2.5,1.1,0.7,2c-6.5,3.6-13,6.5-23.1,15.1c-7.2,6.2-16.6,14.4-23.9,23.3c-7.2,8.8-12.4,16.7-19.2,25.4c-0.9,1.3-2.1,1.2-2.1,1.2c-16.6,2.8-32.8,4.7-47.6,15c-3.1,2.1-4.4,5.9-2.5,8.7c1.7,2.5,5.5,2.8,8.2,0.9c9.2-6.9,18.7-10.1,29.6-10.4c0.5,0,0.7,0.1,0.8,0.4c0.1,0.2,0,0.5-0.2,0.8c-16.3,22.6-20.4,27.7-32.6,41.8c-6.3,7.2-12.5,13.3-19.4,19.6c-27.8,25.9-57.8,25.4-68.6,9.2c-6.4-9.7-5.5-20-1.3-28.4c5.2-10.4,15.7-18,24.4-22.4c3.2-1.6,4.2-5.8,0.9-9.5c-2.1-2.5-7.1-2.9-10.8-2.2c-11.4,2.1-24.9,10.7-32.8,21.1C217.2,524.4,212.8,538.6,214.3,554.4z M786.4,443.6c-7.4,0-17.1,0-24.8,0c-1.8,0-2.8,0.2-3.6,1.9c-2.8,5.5-37.5,57.3-43.9,67.4c-1.1,1.5-2.4,1.3-2.6-0.4c-0.6-6-5.8-12.9-13.9-16.1c-6.2-2.5-12.3-3-18.6-2.1c-11.4,1.5-21.5,7.5-30.4,14.3c-13.4,10.2-25,23.5-40,33.2c-8.2,5.3-19.4,10-26.8,3c-6.8-6.3-6-20.2,4.3-31c1.1-1.1,2.4-0.2,2.2,0.8c-1,4.9,0.2,9.7,3.9,13.1c4.5,4,11,4.5,16.5,1.8c6.5-3.2,10.4-9.5,11.5-16.6c1.7-11-6.8-20.7-17.4-21.5c-8.6-0.6-16.9,2.4-24.9,9c-4,3.4-6.3,5.8-9.8,10.8c-0.9,1.2-2.2,1.4-2.1-0.5c0.4-14.1-5.4-22-17.1-22.3c-9-0.2-18.7,4.7-26.2,10.7c-8.3,6.6-15.5,15.4-23.2,23.7c-1,1-1.8,1-2-1c-0.2-9.3-2.6-18.4-6.9-24.8c-1.5-2.2-4.7-3.3-7.4-1.8c-1.3,0.7-5.6,2.7-8.8,5.2c-1.6,1.3-2.2,3.2-1.5,5.6c4.2,14,3.3,29.8-2.4,43.2c-5.2,12.3-15.3,23.3-27.2,27.1c-7.8,2.5-16,1.3-21-5.7c-6.9-9.6-4.1-26.2,6.2-40c9.1-12.2,22.2-19.9,35.4-24.9c1.5-0.6,1.9-1.6,1.4-2.9c-0.7-2.2-1.8-5.1-2.3-6.4c-1.2-3.2-4.6-3.7-8.7-3.3c-9.5,1.1-18.1,4.4-26.6,8.9c-22.2,11.9-33.4,35-38.3,47.3c-2.3,5.9-4.4,9.6-7,12.9c-3.5,4.4-7.9,8.4-16,15.5c-0.7,0.7-1.2,2-0.6,3.3c0.8,1.7,5,7.6,6.2,8.1c1.3,0.7,2.8-0.2,3.4-0.7c5.6-3.8,12.4-9.9,15.7-14c1.2-1.4,2.3-0.8,3,1.3c3.1,11,11.1,20,22.3,23.7c20.4,6.9,41.6-3.1,57.5-20.4c10.1-11,13.8-18.1,17.7-22.9c6.6-8.2,19.6-26.4,35.1-38.2c5.7-4.3,12.4-7.6,15.8-5.4c2.7,1.8,3.6,5.8-0.8,13.7c-15.8,28.8-39,62.7-43.3,70.9c-0.8,1.4-0.1,2.6,1.4,2.6c8.3,0,16.5,0,23.9,0c1.3-0.1,1.8-0.6,2.4-1.5c12.1-19,23.5-37,35.7-55.7c0.7-1.1,1.3-0.2,1.3,0.2c0.2,4.4,1.3,10.3,3.9,14.1c4.6,7.2,11.2,10.3,18.4,10.3c5.8,0.1,8.7-0.8,14.9-3.1c5.1-1.9,9.1-4.3,12.3-6.6c1.8-1.3,2.1,0.9,2.1,1.2c-2.8,15.1,0.6,32.9,15.6,40.3c17.9,8.8,37.6-3.6,48.9-14.8c1.1-1.1,2.3-1,2.4,1.3c0.2,4.3,2.2,9.4,5.7,12.9c9.5,9.5,28.6,5.7,47.8-9.1c12.3-9.5,25.2-23,36.9-37.2c0.4-0.6,0.7-1.5-0.1-2.3c-1.8-1.9-4.3-4-6.1-5.6c-0.8-0.7-2-0.5-2.7,0c-11.9,11.4-22.7,24.3-38.2,35c-5.2,3.7-13.6,6.6-17.4,1.5c-1.5-2-1.3-4.7,0.1-8.3c4.5-11.3,76.3-120.6,80-127C788.5,444.5,787.8,443.6,786.4,443.6z M449,458.4c0.3,1.6,0.9,1.9,1.7,1.8c3.6-0.7,7.6-3.7,10-7.2c2.2-3.2,3.2-7.7,1-9.5c-1.9-1.6-5-1.2-7.3,0.9C449.8,448.3,448.5,454.1,449,458.4z"/><path d="M500,303.7c-272,0-490,87.1-490,196.2c0,108.5,219.8,196.3,490,196.3c270.2,0,490-88,490-196.3C990,391.8,770.2,303.7,500,303.7z M500,328.1c255.3,0,462.3,76.9,462.3,171.9c0,20.8-9.9,40.7-28.1,59.1C869.4,624.9,699.4,671.8,500,671.8c-255.4,0-462.4-77-462.4-171.9C37.6,405,244.6,328.1,500,328.1z"/></g>
</svg>